<?xml version="1.0" encoding="UTF-8"?>
<svg width="64px" height="64px" viewBox="0 0 64 64" version="1.1" xmlns="http://www.w3.org/2000/svg" xmlns:xlink="http://www.w3.org/1999/xlink">
    <g id="Artboard" stroke="none" stroke-width="1" fill="none" fill-rule="evenodd">
        <rect id="Rectangle" fill="#FF0000" x="0" y="0" width="64" height="64"></rect>
        <path d="M35.524,36.082 L32.698,28.09 C32.5299992,27.6699979 32.3530009,27.1780028 32.167,26.614 C31.9809991,26.0499972 31.8040008,25.4380033 31.636,24.778 C31.4679992,25.4500034 31.2910009,26.0709971 31.105,26.641 C30.9189991,27.2110028 30.7420008,27.7059979 30.574,28.126 L27.766,36.082 L35.524,36.082 Z M44.596,46 L40.402,46 C39.9339977,46 39.5530015,45.8890011 39.259,45.667 C38.9649985,45.4449989 38.7460007,45.1600017 38.602,44.812 L36.838,39.826 L26.434,39.826 L24.67,44.812 C24.5499994,45.1120015 24.3400015,45.3849988 24.04,45.631 C23.7399985,45.8770012 23.3620023,46 22.906,46 L18.676,46 L28.882,19.882 L34.408,19.882 L44.596,46 Z" id="A" fill="#000000" fill-rule="nonzero"></path>
    </g>
</svg>
